<svg xmlns="http://www.w3.org/2000/svg" viewBox="-100 0 1000 1000" width="1000" height="1000">

<line class="axis" x1="50" y1="450" x2="725" y2="450" />
<line class="axis" x1="50" y1="450" x2="50" y2="45" />

<text class="axis_label text" x="400" y="515"> Mode of Transportation</text>
<text class="axis_label text" transform="translate(0,250)rotate(270)"> Percent of People(%)</text>
    


    {% for mode in x_axis_increments%}
      <text class="tick_number text" x="{{130+loop.index0*175}}" y="470">{{mode}}</text>
      <!-- <line class="tickmark text" x1="{{130+loop.index0*175}}" y1="454" x2="{{130+loop.index0*175}}" y2="446" /> -->
    {% endfor %}

     {% for percent in y_axis_increments%}
      <text class="tick_number text" x="30" y="{{410-loop.index0*50}}">{{percent}}</text>
      <line class="tickmark" x1="46" y1="{{400-loop.index0*50}}" x2="54" y2="{{400-loop.index0*50}}" />
    {% endfor %}

    {% for y_value in bar_y_values%}
      <rect width="50" height="{{y_value}}" x="{{130+loop.index0*175-50}}" y="{{450-y_value}}" fill="blue" />      
    {% endfor %}

    {% for label in bar_labels%}
      <text class="tick_number text" x="{{105+loop.index0*175}}" 
      y="{{445-bar_y_values[loop.index0]}}">{{label}}%</text>
    {% endfor %}

    <!-- average bars!!! -->
    {% for y_value in average_bar_y_values%}
      <rect width="50" height="{{y_value}}" x="{{180+loop.index0*175-50}}" y="{{450-y_value}}" fill="#89CFF0" />      
    {% endfor %}

    {% for label in average_bar_labels%}
      <text class="tick_number text" x="{{160+loop.index0*175}}" 
      y="{{445-average_bar_y_values[loop.index0]}}">{{label}}%</text>
    {% endfor %}

<text class="text" x="665" y="96">Borough Specific Data</text>
<text class="text" x="665" y="120">Average Borough Data</text>
<rect  fill="blue" x="550" y="85" width="17" height="17"/>
<rect  fill="#89CFF0" x="550" y="107" width="17" height="17"/>



    <!-- <text class="axis_label text" x="400" y="515">Borough Specific Data</text>
    <rect  fill="#89CFF0" x="650" y="150" width="17" height="17"> -->


  <!-- <line class="fever_line_Average" x1="50" y1 = "{{450-32.04*5}}" x2 = "700" y2 = "{{450-32.04*5}}" />
  <text class="tick_number text" x="725" y="{{450-32.04*5-15}}"> Car, Van, Truck Borough Average</text> -->
</svg>